<?xml version="1.0" standalone="no"?>
<!DOCTYPE svg PUBLIC "-//W3C//DTD SVG 20010904//EN"
 "http://www.w3.org/TR/2001/REC-SVG-20010904/DTD/svg10.dtd">
<svg version="1.0" xmlns="http://www.w3.org/2000/svg"
 width="281.000000pt" height="117.000000pt" viewBox="0 0 281.000000 117.000000"
 preserveAspectRatio="xMidYMid meet">

<g transform="translate(0.000000,117.000000) scale(0.100000,-0.100000)"
fill="#000000" stroke="none">
<path d="M656 1055 c-10 -27 -7 -35 12 -35 13 0 14 2 3 9 -11 7 -11 9 0 14 10
3 11 8 3 16 -9 10 -13 8 -18 -4z"/>
<path d="M636 993 c-4 -9 -2 -21 4 -27 7 -7 10 -5 10 7 0 20 16 23 22 5 3 -7
7 -2 10 10 5 18 2 22 -17 22 -13 0 -26 -8 -29 -17z"/>
<path d="M551 938 c-78 -22 -181 -129 -181 -188 0 -19 -8 -29 -43 -53 -15 -10
-16 -16 -5 -43 10 -27 8 -38 -11 -79 -12 -26 -20 -53 -17 -60 2 -7 2 -16 -2
-20 -4 -3 -11 15 -17 42 l-10 48 -77 -1 c-105 -2 -108 -4 -108 -63 0 -27 5
-53 10 -56 6 -3 10 -37 10 -75 0 -52 -4 -71 -16 -78 -11 -6 -14 -22 -12 -63
l3 -54 68 -3 c40 -2 74 2 82 8 7 6 16 7 19 2 8 -13 257 -14 273 -1 7 6 13 28
13 48 l0 36 27 -34 c32 -41 78 -61 137 -61 52 0 93 14 122 41 20 18 22 19 35
3 49 -59 212 -57 250 3 11 18 15 18 55 5 78 -26 163 1 204 64 l19 28 7 -30
c10 -42 23 -54 59 -54 49 0 65 25 67 106 l1 69 6 -71 c7 -82 21 -104 66 -104
44 0 57 20 65 98 l7 67 2 -62 c1 -70 22 -103 64 -103 25 0 57 28 57 48 0 17
17 15 27 -2 24 -42 123 -59 188 -32 35 15 39 23 36 76 -1 22 1 21 19 -12 11
-20 29 -43 41 -51 20 -15 20 -15 1 -21 -24 -8 -36 -49 -22 -76 13 -25 49 -35
120 -35 85 1 150 52 150 118 0 25 1 25 30 10 36 -17 73 -11 97 17 16 18 17 18
42 1 35 -25 83 -34 130 -26 51 9 81 37 81 78 -1 18 2 50 6 71 13 75 -46 136
-131 136 -77 0 -133 -57 -137 -140 -1 -25 -4 11 -7 78 -6 116 -8 125 -30 144
-47 37 -101 4 -101 -62 l0 -37 -96 4 c-105 3 -146 -9 -166 -52 l-10 -23 -33
33 c-59 58 -158 55 -211 -8 -20 -23 -28 -28 -32 -18 -3 8 -16 26 -29 39 -21
21 -30 23 -76 18 -29 -3 -58 -5 -64 -5 -7 0 -34 0 -60 0 -27 0 -65 0 -87 0
-21 0 -44 -5 -52 -11 -10 -9 -17 -3 -33 28 -30 59 -73 85 -145 90 -38 3 -64
10 -69 19 -7 11 -27 12 -100 8 -51 -4 -104 -10 -118 -15 -35 -11 -49 4 -49 52
0 21 -4 38 -9 38 -5 0 -11 17 -15 38 -9 58 -61 118 -131 152 -33 16 -63 26
-67 22 -5 -6 -12 -115 -9 -149 0 -6 10 -15 21 -18 15 -5 19 -12 15 -26 -5 -15
-2 -19 14 -19 12 0 21 7 21 15 0 8 7 15 15 15 18 0 21 72 5 117 -9 26 -9 27 5
9 8 -11 16 -31 17 -45 1 -27 4 -49 8 -66 1 -5 2 -13 1 -17 0 -5 6 -8 14 -8 9
0 15 -9 15 -25 0 -14 5 -25 10 -25 6 0 10 7 10 15 0 8 3 15 8 15 19 -1 32 -19
30 -42 -2 -24 -4 -25 -33 -15 -16 5 -36 17 -43 25 -14 18 -42 25 -42 11 0 -10
-60 -12 -84 -3 -9 3 -16 14 -17 23 0 12 -2 12 -9 -4 -8 -19 -9 -19 -9 -1 -1
14 -4 16 -14 7 -8 -6 -55 -10 -118 -10 -102 1 -104 2 -105 24 -1 13 4 26 12
29 9 4 14 -2 14 -15 0 -27 32 -22 40 6 3 14 15 21 40 23 19 2 43 5 52 8 12 4
15 0 11 -16 -3 -11 -10 -20 -17 -20 -6 0 -3 -5 7 -11 24 -14 40 -1 34 27 -3
20 0 24 19 24 24 0 27 7 40 103 l6 47 -33 -1 c-19 0 -49 -5 -68 -11z m-2 -42
c-11 -18 -21 -48 -22 -65 -2 -30 -11 -40 -20 -23 -8 11 19 81 39 103 25 28 26
24 3 -15z m77 -18 c-4 -28 -9 -55 -12 -60 -6 -10 -61 -11 -67 0 -8 12 21 86
40 99 36 27 46 17 39 -39z m99 18 c24 -36 17 -110 -10 -113 l-20 -3 20 9 c18
9 17 10 -8 10 -34 1 -41 18 -33 76 8 51 27 59 51 21z m-226 -37 c-14 -42 -24
-53 -38 -45 -12 8 -1 37 27 69 21 24 24 16 11 -24z m309 -24 c16 -34 15 -68 0
-63 -13 5 -30 88 -18 88 4 0 12 -11 18 -25z m-381 -37 c-3 -7 -5 -2 -5 12 0
14 2 19 5 13 2 -7 2 -19 0 -25z m3 -107 c-18 -10 -80 -22 -80 -16 0 5 59 23
80 24 13 0 13 -1 0 -8z m108 2 c-16 -2 -40 -2 -55 0 -16 2 -3 4 27 4 30 0 43
-2 28 -4z m142 -6 c48 -4 165 -36 157 -43 -3 -3 -31 2 -64 10 -32 9 -92 19
-133 23 -52 5 -67 9 -50 13 14 4 30 5 35 3 6 -2 30 -5 55 -6z m-119 -27 c27 0
39 -4 39 -14 0 -19 -23 -33 -28 -18 -2 7 -12 12 -23 12 -12 0 -16 -5 -13 -15
5 -11 -1 -15 -20 -15 -22 0 -26 4 -26 31 0 24 3 30 16 25 9 -3 33 -6 55 -6z
m56 -27 c-3 -10 -5 -4 -5 12 0 17 2 24 5 18 2 -7 2 -21 0 -30z m79 17 c18 0
36 -4 39 -10 3 -5 -3 -10 -13 -10 -11 0 -34 -3 -51 -6 -29 -6 -31 -5 -31 22 0
22 3 25 12 16 7 -7 27 -12 44 -12z m-309 -12 c-3 -8 -6 -5 -6 6 -1 11 2 17 5
13 3 -3 4 -12 1 -19z m62 -5 c-1 -23 -2 -24 -6 -6 -3 14 -9 20 -18 17 -8 -3
-11 -13 -9 -22 5 -15 4 -14 -6 1 -14 21 -5 37 21 37 14 0 19 -6 18 -27z m18
-15 c-3 -8 -6 -5 -6 6 -1 11 2 17 5 13 3 -3 4 -12 1 -19z m634 -35 c-17 -14
-36 -34 -43 -46 -33 -61 -26 -177 13 -230 17 -23 18 -31 8 -43 -36 -43 -112
-56 -175 -29 -34 14 -35 16 -32 62 3 45 5 48 34 51 24 2 33 -2 42 -22 11 -26
36 -27 44 -3 3 7 3 60 0 120 -4 105 -5 107 -28 107 -20 0 -24 5 -24 29 0 27 3
30 43 35 74 10 142 11 146 2 2 -5 -11 -20 -28 -33z m1307 25 c8 -8 12 -51 12
-125 l0 -114 -29 15 c-16 9 -31 23 -35 31 -8 22 -8 190 1 198 10 11 38 8 51
-5z m-1550 -41 c2 -28 -1 -37 -12 -37 -14 0 -16 -17 -16 -111 0 -87 -4 -117
-17 -140 -47 -79 -200 -77 -245 3 -7 13 -15 70 -18 128 -4 77 -8 104 -17 103
-9 -2 -13 9 -13 31 0 39 14 46 98 46 l52 0 0 -35 c0 -26 -4 -35 -16 -35 -14 0
-16 -12 -12 -89 4 -92 16 -121 48 -121 33 0 41 24 38 121 -2 69 -6 93 -15 91
-9 -1 -13 11 -13 38 l0 39 68 3 c90 5 87 6 90 -35z m439 13 c47 -28 67 -73 68
-150 0 -78 -26 -129 -79 -154 -80 -38 -162 -8 -203 74 -49 96 -9 220 72 220
19 0 39 -8 50 -20 17 -18 17 -20 1 -20 -32 0 -66 -46 -66 -89 0 -78 45 -124
103 -102 37 14 50 45 45 107 -5 61 -42 118 -92 140 l-31 13 50 1 c33 0 61 -7
82 -20z m-807 -35 c0 -24 -5 -35 -15 -35 -11 0 -15 -11 -14 -47 2 -97 14 -168
27 -166 8 2 12 -11 12 -37 l0 -41 -67 3 -68 3 -3 33 c-2 24 1 32 12 32 18 0
21 50 9 136 l-6 49 -24 -105 c-12 -58 -25 -115 -28 -128 -5 -19 -11 -23 -38
-20 l-32 3 -30 125 -30 125 -3 -90 c-2 -56 1 -91 8 -93 5 -2 10 -19 10 -38 l0
-34 -60 0 -60 0 0 35 c0 24 5 35 15 35 12 0 15 14 15 69 0 38 3 83 6 100 5 24
3 31 -10 31 -22 0 -22 56 0 64 9 3 41 6 73 6 l58 0 18 -95 c11 -52 22 -95 25
-95 3 0 13 45 23 99 l18 100 42 4 c118 10 117 11 117 -28z m1714 -40 c20 -11
33 -12 40 -5 15 15 53 12 60 -6 10 -27 7 -254 -5 -276 -31 -58 -209 -66 -209
-8 0 18 6 20 58 20 77 0 97 14 88 66 -7 48 -7 50 0 94 4 28 1 39 -15 54 -27
25 -68 14 -82 -21 -13 -35 1 -67 38 -85 41 -19 38 -52 -5 -56 -118 -12 -154
194 -39 227 17 5 34 10 37 10 3 0 18 -6 34 -14z m449 4 c33 -15 49 -48 45 -90
l-3 -34 -68 -3 c-88 -4 -87 -26 1 -30 52 -2 62 -6 62 -21 0 -38 -95 -54 -150
-26 -33 17 -49 59 -33 84 15 24 54 41 96 41 41 0 48 13 16 30 -29 16 -79 2
-110 -31 l-27 -29 9 38 c15 70 92 103 162 71z m-925 -24 c31 -28 43 -173 17
-195 -8 -6 -22 -10 -32 -8 -14 3 -19 17 -25 71 -8 86 -13 97 -38 97 -30 0 -28
47 3 53 28 5 58 -2 75 -18z m249 5 c23 -13 34 -29 39 -54 10 -59 3 -66 -70
-66 -36 0 -67 -4 -71 -9 -11 -18 34 -32 80 -25 37 5 46 3 52 -11 10 -28 -24
-45 -87 -45 -66 0 -100 23 -100 70 0 38 32 60 88 60 36 0 43 3 40 18 -2 12
-15 18 -44 20 -34 2 -46 -2 -72 -27 -38 -35 -44 -16 -12 37 33 54 99 68 157
32z m-381 -11 c16 -17 19 -37 19 -108 l0 -86 -30 0 -30 0 -5 73 c-5 69 -20
100 -42 86 -10 -6 -11 40 -1 49 15 15 71 6 89 -14z m-122 -5 c7 -17 8 -194 2
-194 -2 0 -11 -3 -19 -6 -32 -12 -47 24 -47 115 0 48 3 91 7 94 12 13 51 7 57
-9z m956 -124 c25 0 29 -45 4 -54 -44 -17 -84 12 -84 61 0 23 1 23 30 8 16 -8
38 -15 50 -15z"/>
<path d="M608 783 c6 -2 18 -2 25 0 6 3 1 5 -13 5 -14 0 -19 -2 -12 -5z"/>
</g>
</svg>
