<?xml version="1.0" standalone="no"?>
<!DOCTYPE svg PUBLIC "-//W3C//DTD SVG 20010904//EN"
 "http://www.w3.org/TR/2001/REC-SVG-20010904/DTD/svg10.dtd">
<svg version="1.0" xmlns="http://www.w3.org/2000/svg"
 width="3298.000000pt" height="3298.000000pt" viewBox="0 0 3298.000000 3298.000000"
 preserveAspectRatio="xMidYMid meet">
<metadata>
Created by potrace 1.14, written by Peter Selinger 2001-2017
</metadata>
<g transform="translate(0.000000,3298.000000) scale(0.100000,-0.100000)"
fill="#000000" stroke="none">
<path d="M7795 22121 c-36 -9 -83 -38 -107 -66 -16 -19 -35 -72 -57 -158 -5
-20 -23 -54 -39 -75 -33 -42 -66 -104 -75 -143 -4 -15 -23 -41 -42 -58 -48
-42 -72 -92 -86 -181 -10 -58 -18 -79 -36 -93 -27 -22 -67 -96 -79 -147 -9
-41 -7 -110 5 -142 6 -16 3 -34 -11 -62 -28 -55 -34 -131 -14 -198 9 -31 16
-81 16 -111 0 -49 -3 -55 -22 -60 -44 -11 -204 -29 -290 -32 -146 -6 -217 -16
-353 -50 -71 -18 -146 -36 -165 -40 -47 -8 -53 -10 -65 -16 -10 -6 -52 -18
-95 -26 -13 -2 -29 -8 -35 -12 -5 -4 -32 -14 -60 -21 -27 -7 -66 -19 -85 -27
-62 -25 -285 -137 -298 -150 -8 -7 -35 -27 -60 -45 -26 -17 -49 -34 -52 -37
-3 -4 -23 -18 -45 -33 -44 -29 -80 -56 -134 -104 -20 -17 -58 -36 -85 -43 -77
-19 -166 -64 -231 -117 -83 -68 -295 -289 -354 -370 -14 -20 -45 -60 -68 -89
-50 -63 -122 -173 -176 -265 -36 -62 -140 -272 -137 -278 0 -1 -6 -15 -14 -30
-7 -15 -26 -59 -40 -98 -25 -68 -29 -72 -69 -84 -90 -27 -170 -124 -184 -223
-3 -23 -9 -49 -14 -58 -9 -18 -31 -137 -33 -184 -1 -16 4 -59 12 -95 16 -80
11 -121 -29 -208 -17 -37 -35 -77 -40 -89 -5 -13 -18 -24 -29 -24 -27 -2 -33
-3 -45 -10 -5 -4 -28 -12 -50 -19 -22 -7 -46 -17 -52 -23 -7 -5 -13 -6 -13 -2
0 4 -7 2 -15 -5 -8 -7 -15 -9 -15 -5 0 4 -6 3 -12 -3 -7 -5 -29 -19 -49 -30
-96 -53 -114 -67 -183 -136 -57 -57 -103 -152 -112 -228 -4 -38 1 -76 16 -133
12 -44 23 -84 24 -90 4 -20 29 -61 61 -100 18 -22 42 -60 54 -85 26 -53 49
-171 45 -232 -1 -24 -5 -85 -8 -137 l-7 -94 -62 -61 c-92 -92 -125 -154 -157
-301 -21 -99 -50 -266 -50 -294 0 -9 -3 -11 -8 -5 -8 8 -63 250 -77 334 -12
75 -100 193 -188 254 -101 69 -232 86 -467 61 -19 -2 -80 -6 -135 -10 -55 -3
-118 -8 -140 -10 -22 -2 -83 -7 -135 -10 -52 -3 -106 -8 -120 -10 -14 -2 -72
-7 -130 -10 -59 -3 -115 -7 -125 -9 -11 -2 -69 -7 -130 -10 -60 -4 -128 -9
-149 -11 -22 -3 -79 -7 -127 -9 -90 -6 -173 -12 -268 -22 -77 -8 -210 -51
-251 -82 -108 -81 -172 -179 -206 -316 -21 -87 -23 -110 -23 -486 -1 -371 0
-400 21 -495 17 -80 30 -113 64 -165 52 -78 73 -104 97 -113 9 -3 17 -10 17
-15 0 -5 23 -20 51 -33 l51 -24 -7 -135 c-4 -74 -8 -183 -11 -241 -2 -58 -6
-144 -9 -190 -2 -46 -7 -142 -10 -214 -3 -71 -8 -152 -10 -180 -5 -60 -17
-318 -19 -395 l-1 -54 -60 -23 c-74 -28 -167 -114 -209 -193 -17 -30 -31 -59
-32 -65 -35 -142 -37 -159 -37 -585 0 -296 3 -446 12 -495 22 -125 74 -221
158 -291 62 -53 74 -59 179 -89 l89 -26 721 1 c423 0 741 4 770 10 76 14 184
48 200 61 11 9 23 8 52 -4 20 -9 73 -26 117 -38 76 -21 99 -22 470 -22 369 0
395 2 480 23 50 12 105 30 123 41 31 18 34 18 59 2 14 -10 31 -18 37 -19 6 -2
54 -14 106 -27 l95 -24 840 3 c741 3 846 5 895 19 30 9 71 21 91 27 40 11 178
113 194 143 5 11 24 45 42 75 46 81 73 201 73 329 l0 106 23 -27 c12 -14 38
-46 57 -70 55 -69 178 -185 270 -254 47 -35 91 -69 98 -75 21 -18 134 -84 170
-100 17 -8 32 -17 32 -21 0 -5 3 -7 8 -6 4 1 34 -11 67 -27 33 -16 63 -30 68
-31 4 -1 9 -3 12 -4 3 -1 8 -3 13 -5 4 -1 14 -4 22 -7 8 -3 53 -16 100 -28 47
-13 110 -31 140 -40 30 -10 82 -23 115 -29 33 -7 78 -16 100 -21 41 -10 81
-15 195 -27 86 -10 425 -9 520 1 102 10 368 64 407 81 17 8 37 15 45 15 20 0
162 44 228 70 30 12 64 24 74 27 59 18 322 181 381 236 11 11 43 36 70 57 28
21 70 58 94 84 l44 45 79 -75 c43 -41 104 -91 136 -111 31 -20 59 -39 62 -43
3 -4 30 -23 61 -42 49 -32 102 -58 254 -129 54 -25 297 -107 338 -114 60 -11
122 -26 182 -44 33 -11 96 -24 140 -31 44 -6 91 -13 105 -15 112 -19 445 -26
595 -13 96 9 295 44 327 58 13 6 64 19 113 31 50 11 95 21 100 22 6 1 15 5 20
8 6 4 35 14 65 24 61 19 283 127 300 146 3 3 23 16 45 29 94 57 375 305 375
331 0 5 5 9 10 9 6 0 10 6 10 14 0 8 3 16 8 18 4 2 20 22 36 45 27 41 29 42
55 29 24 -12 98 -47 179 -83 107 -48 510 -145 667 -161 112 -11 463 -7 535 6
36 7 79 14 96 17 76 12 368 85 454 114 293 99 640 335 842 573 24 27 51 59 60
70 9 10 34 44 55 75 28 41 39 51 41 37 6 -38 25 -111 49 -186 36 -114 148
-268 258 -356 6 -5 24 -17 40 -28 17 -10 37 -25 45 -33 8 -8 42 -27 75 -41 52
-24 88 -35 180 -55 11 -2 52 -11 90 -20 71 -15 195 -20 250 -10 104 21 287 70
325 87 40 19 114 65 147 93 6 6 27 21 45 34 30 22 144 170 177 229 l13 25 34
-39 c18 -21 33 -42 34 -46 1 -23 109 -133 182 -186 105 -77 174 -106 323 -138
11 -2 53 -11 94 -20 86 -19 232 -15 321 11 30 8 66 17 80 20 65 12 145 37 148
45 2 6 9 10 15 10 12 0 110 64 135 87 7 7 17 13 21 13 22 0 117 113 183 217
18 29 36 51 40 50 4 -1 38 -43 75 -94 52 -70 90 -108 157 -158 120 -90 148
-102 326 -146 139 -34 166 -38 255 -35 55 2 125 11 157 20 31 8 67 17 80 20
74 13 200 57 218 76 3 3 32 23 65 45 33 22 82 63 110 90 64 64 164 214 186
277 l16 49 38 -48 c52 -64 105 -114 195 -181 41 -32 77 -59 80 -62 11 -11 137
-89 185 -113 114 -58 233 -100 385 -132 8 -2 53 -12 100 -23 94 -22 155 -34
185 -37 215 -24 408 -24 573 1 131 19 165 26 330 64 276 64 373 100 527 193
11 7 22 14 25 17 3 3 30 23 60 45 79 57 118 94 153 145 17 25 39 53 48 63 28
30 77 129 84 170 7 38 25 61 25 33 0 -9 3 -16 8 -16 4 0 18 -17 31 -38 58 -88
144 -180 234 -249 26 -21 47 -40 46 -43 0 -3 -27 -25 -60 -49 -60 -43 -115
-109 -175 -209 -40 -66 -108 -337 -107 -427 2 -118 100 -435 135 -435 4 0 8
-6 8 -14 0 -8 3 -16 8 -18 4 -1 27 -30 51 -63 25 -33 48 -61 52 -63 4 -2 23
-16 41 -32 18 -17 36 -30 40 -30 4 0 13 -6 20 -13 31 -31 156 -98 227 -121 64
-22 308 -84 391 -100 14 -2 48 -9 77 -15 46 -9 92 -15 258 -35 48 -6 284 -19
340 -19 55 0 252 13 295 19 60 9 168 28 215 38 17 4 131 31 175 42 276 67 410
128 637 292 229 164 417 398 521 650 39 93 99 317 124 461 l11 67 76 -38 c66
-33 201 -74 310 -93 19 -3 37 -7 40 -9 26 -16 260 -23 326 -11 30 6 282 64
300 70 6 1 13 3 17 4 63 13 258 139 334 215 27 28 69 79 93 114 47 69 39 68
105 10 74 -65 249 -182 341 -228 128 -63 203 -88 430 -141 93 -22 109 -25 160
-35 191 -37 508 -37 710 0 11 2 38 7 60 11 22 3 85 17 140 30 55 13 114 26
131 29 44 8 190 51 254 75 162 61 369 207 450 317 41 56 79 112 94 142 14 28
48 148 62 217 2 11 7 34 10 50 14 62 12 107 -10 220 -12 60 -39 165 -52 203
-8 23 -14 46 -14 50 0 4 23 39 51 77 28 38 61 92 73 120 21 46 79 266 94 360
9 55 8 300 -1 355 -21 117 -100 436 -117 469 -5 9 -27 54 -50 101 -34 70 -119
199 -200 305 -38 50 -183 186 -246 230 -38 27 -71 52 -74 55 -33 38 -256 155
-359 189 -55 18 -264 72 -331 85 -14 2 -49 10 -79 15 -123 25 -277 31 -436 18
-94 -8 -121 -13 -250 -41 -379 -82 -515 -143 -792 -352 -41 -31 -158 -146
-202 -199 -19 -23 -163 -228 -176 -249 -7 -12 -10 20 -12 111 -9 783 -17 966
-44 1078 -20 86 -24 102 -33 143 -21 93 -79 232 -98 232 -4 0 -8 4 -8 10 0 10
-79 117 -114 155 -25 26 -178 136 -221 157 -29 15 -241 71 -320 84 -98 17
-190 8 -367 -35 -155 -38 -161 -40 -276 -119 -112 -76 -113 -77 -192 -183 -92
-124 -110 -165 -156 -364 -36 -156 -41 -207 -37 -434 3 -189 2 -202 -15 -197
-9 3 -64 17 -122 31 -121 29 -199 35 -294 24 -105 -13 -343 -76 -394 -104
l-46 -26 -70 35 c-97 47 -165 69 -357 112 -146 34 -180 38 -304 38 -77 1 -165
-2 -195 -6 -98 -12 -303 -60 -450 -105 -86 -27 -274 -116 -320 -153 -14 -11
-63 -48 -110 -82 -47 -34 -91 -67 -97 -74 -7 -7 -23 -21 -36 -31 -41 -33 -151
-166 -217 -264 l-65 -95 -66 88 c-99 132 -183 218 -283 288 -26 19 -61 44 -76
55 -205 149 -366 212 -744 290 -169 34 -372 38 -576 11 -129 -18 -420 -93
-534 -138 -113 -46 -186 -88 -328 -189 -130 -93 -230 -192 -327 -324 -44 -60
-85 -115 -91 -122 -5 -7 -10 -18 -10 -25 0 -7 -10 5 -21 27 -58 108 -183 280
-258 356 -49 49 -233 189 -249 189 -5 0 -15 6 -21 14 -16 20 -150 75 -236 98
-221 59 -290 71 -435 74 -159 3 -231 -6 -430 -55 -183 -44 -300 -89 -380 -144
l-34 -24 -87 44 c-65 33 -131 55 -264 88 -97 25 -196 47 -219 51 -68 10 -308
13 -356 4 -25 -4 -58 -10 -75 -13 -60 -10 -241 -56 -299 -76 -32 -12 -88 -37
-122 -56 -49 -28 -68 -34 -82 -26 -19 10 -192 56 -251 66 -19 3 -38 8 -42 11
-10 6 -155 6 -194 0 -39 -7 -48 -9 -193 -45 -86 -21 -140 -40 -175 -63 -29
-18 -53 -36 -55 -40 -2 -5 -8 -8 -14 -8 -5 0 -17 -7 -26 -16 -13 -14 -17 -14
-20 -3 -3 8 -10 28 -17 44 -7 17 -23 55 -35 85 -47 119 -175 348 -230 413 -6
7 -46 59 -89 117 -146 193 -281 315 -531 480 -190 125 -347 189 -629 256 -247
58 -375 76 -561 77 -186 1 -390 -18 -457 -44 -17 -6 -23 -5 -23 5 0 49 -121
202 -205 261 -57 40 -112 59 -230 82 -62 12 -257 6 -530 -16 -137 -11 -338
-28 -445 -36 -107 -9 -363 -29 -568 -45 -205 -16 -376 -29 -380 -28 -4 1 -34
-1 -67 -5 -33 -4 -96 -9 -140 -13 -276 -19 -332 -29 -470 -84 -28 -11 -35 -9
-97 31 -62 41 -68 47 -75 89 -8 44 -7 180 0 365 3 50 12 119 22 155 26 100 12
193 -43 273 -36 51 -83 89 -134 108 -36 12 -38 15 -39 59 -1 25 0 50 1 55 3
14 -27 182 -50 280 -11 44 -22 98 -26 120 -4 22 -13 52 -21 67 -7 15 -13 31
-13 35 -1 34 -68 221 -110 303 -67 133 -171 300 -224 359 -11 13 -45 37 -74
53 -37 21 -63 46 -86 82 -84 131 -307 383 -426 480 -36 30 -78 66 -95 80 -117
104 -443 279 -581 312 -16 4 -43 17 -59 29 -39 29 -110 61 -199 90 -39 13 -84
30 -101 38 -92 46 -267 106 -314 107 -9 1 0 9 20 20 93 49 147 150 135 255 -5
49 -2 61 27 112 28 51 32 67 31 128 -1 39 -4 77 -6 85 -11 34 -23 56 -44 79
-17 19 -20 29 -14 52 5 16 11 32 14 37 25 41 11 133 -28 179 -17 20 -25 46
-29 93 -6 67 -10 91 -28 175 -6 28 -13 80 -14 116 -6 157 -144 257 -300 220z"/>
</g>
</svg>
